<mxfile host="app.diagrams.net" modified="2024-05-13T15:03:00.835Z" agent="Mozilla/5.0 (Macintosh; Intel Mac OS X 10_15_7) AppleWebKit/537.36 (KHTML, like Gecko) Chrome/124.0.0.0 Safari/537.36" version="24.4.0" etag="d4_5N1H4IhbngzNV9BVY" type="github">
  <diagram name="第 1 页" id="zYh_uFx0zvC80kyLPUVe">
    <mxGraphModel>
      <root>
        <mxCell id="0" />
        <mxCell id="1" parent="0" />
      </root>
    </mxGraphModel>
  </diagram>
</mxfile>
